<svg xmlns="http://www.w3.org/2000/svg" viewBox="0 0 760 980" role="img" aria-labelledby="t d"><title id="t">Prime Concierge</title><desc id="d">Erwachsener eleganter Concierge im schwarzen Anzug mit stark verschattetem Gesicht vor goldenem Ring.</desc><defs><radialGradient id="halo" cx="46%" cy="38%" r="56%"><stop offset="0" stop-color="#f4c961" stop-opacity=".40"/><stop offset=".38" stop-color="#bd7c1b" stop-opacity=".15"/><stop offset=".72" stop-color="#5f3a08" stop-opacity=".04"/><stop offset="1" stop-color="#000" stop-opacity="0"/></radialGradient><linearGradient id="ring" x1="0" y1="0" x2="1" y2="1"><stop stop-color="#8f5d12"/><stop offset=".25" stop-color="#f4d06f"/><stop offset=".55" stop-color="#c88b26"/><stop offset=".8" stop-color="#f0c45d"/><stop offset="1" stop-color="#85530e"/></linearGradient><linearGradient id="face" x1=".1" y1=".05" x2=".85" y2=".9"><stop stop-color="#d3a36e"/><stop offset=".23" stop-color="#8a5e36"/><stop offset=".52" stop-color="#3b2a1d"/><stop offset=".74" stop-color="#17120f"/><stop offset="1" stop-color="#070707"/></linearGradient><linearGradient id="faceLight" x1="0" y1="0" x2="1" y2="0"><stop stop-color="#f1c98d" stop-opacity=".72"/><stop offset=".28" stop-color="#b47c49" stop-opacity=".35"/><stop offset=".65" stop-color="#1b1511" stop-opacity=".08"/><stop offset="1" stop-color="#000" stop-opacity="0"/></linearGradient><linearGradient id="suit" x1=".05" y1=".05" x2=".92" y2=".98"><stop stop-color="#1d1f21"/><stop offset=".25" stop-color="#0d0f10"/><stop offset=".58" stop-color="#030404"/><stop offset=".82" stop-color="#131516"/><stop offset="1" stop-color="#040404"/></linearGradient><linearGradient id="lapel" x1="0" y1="0" x2="1" y2="1"><stop stop-color="#2b2d2f"/><stop offset=".45" stop-color="#111315"/><stop offset="1" stop-color="#050606"/></linearGradient><linearGradient id="shirt" x1="0" y1="0" x2="0" y2="1"><stop stop-color="#fff"/><stop offset=".45" stop-color="#e7e4dd"/><stop offset="1" stop-color="#bcb8b0"/></linearGradient><linearGradient id="hand" x1="0" y1="0" x2="1" y2="1"><stop stop-color="#b77c4b"/><stop offset=".4" stop-color="#6b452a"/><stop offset="1" stop-color="#1b1410"/></linearGradient><filter id="shadow" x="-40%" y="-30%" width="180%" height="180%"><feDropShadow dx="0" dy="24" stdDeviation="28" flood-color="#000" flood-opacity=".78"/></filter><filter id="goldglow" x="-60%" y="-60%" width="220%" height="220%"><feGaussianBlur stdDeviation="12"/></filter></defs><circle cx="336" cy="363" r="260" fill="url(#halo)"/><circle cx="336" cy="363" r="224" fill="none" stroke="url(#ring)" stroke-width="8" opacity=".92"/><circle cx="336" cy="363" r="235" fill="none" stroke="#dca636" stroke-width="2" opacity=".22"/><g filter="url(#shadow)"><path d="M252 181c19-61 74-100 135-91 68 10 107 66 96 132l-9 55-23 55-39 43-58 12-58-20-38-47-16-59-4-46 14-34Z" fill="url(#face)"/><path d="M255 189c24-70 77-107 143-96 43 7 78 31 98 69-41-21-74-25-102-17-39 12-80 29-139 44Z" fill="#050607"/><path d="M264 203c19-31 44-51 75-60-27 19-38 47-39 82-8 26-16 51-23 77-10-29-16-61-18-96l5-3Z" fill="url(#faceLight)" opacity=".85"/><path d="M281 248c18 3 34 0 50-8" fill="none" stroke="#130f0c" stroke-width="10" stroke-linecap="round"/><path d="M390 241c20 9 39 11 59 4" fill="none" stroke="#0f0c0a" stroke-width="10" stroke-linecap="round"/><path d="M351 259c-4 25-4 51 1 75" fill="none" stroke="#2b211a" stroke-width="8" stroke-linecap="round"/><path d="M317 339c26 17 55 18 83-2" fill="none" stroke="#1b130f" stroke-width="8" stroke-linecap="round"/><path d="M298 361 345 401 397 365l-8 63-43 24-43-26-5-65Z" fill="url(#shirt)"/><path d="M219 450 342 390 479 447l91 302c13 42-18 84-62 84H170c-44 0-75-42-62-84l111-299Z" fill="url(#suit)"/><path d="m281 416 64 47-60 134-81-136 77-45Zm128 2-64 45 62 134 85-139-83-40Z" fill="url(#lapel)" stroke="#343638" stroke-width="3"/><path d="m345 462-29 43 14 35-26 190h84l-27-190 14-35-30-43Z" fill="#040404"/><path d="M316 401 345 457 375 402l-2 55-28 27-27-27-2-56Z" fill="url(#shirt)"/><path d="M346 458 319 499 346 538 373 499 346 458Z" fill="#020202"/><path d="M210 602c-46 68-74 136-87 205" fill="none" stroke="#070808" stroke-width="78" stroke-linecap="round"/><path d="M485 603c48 67 77 135 90 205" fill="none" stroke="#070808" stroke-width="78" stroke-linecap="round"/><path d="M151 742c41 3 86 20 130 54" fill="none" stroke="#141617" stroke-width="67" stroke-linecap="round"/><path d="M541 744c-44 3-88 19-132 52" fill="none" stroke="#131516" stroke-width="67" stroke-linecap="round"/><path d="M194 754c28 14 57 35 87 64" fill="none" stroke="url(#hand)" stroke-width="40" stroke-linecap="round"/><path d="M494 758c-29 13-57 33-86 61" fill="none" stroke="url(#hand)" stroke-width="40" stroke-linecap="round"/><rect x="430" y="660" width="92" height="13" rx="2" fill="#efeee9"/><rect x="432" y="663" width="88" height="3" fill="#c8c5bd" opacity=".45"/></g><path d="M99 527c28 77 66 143 119 196" fill="none" stroke="#e1a935" stroke-width="6" stroke-linecap="round" opacity=".2" filter="url(#goldglow)"/></svg>